<svg width="70" height="41" viewBox="0 0 70 41" fill="none" xmlns="http://www.w3.org/2000/svg">
    <path d="M32.4228 22.8337C31.9998 21.9283 31.4228 21.1804 30.6536 20.5506C29.9228 19.9207 28.9613 19.409 27.8844 18.976C26.769 18.543 25.5382 18.1494 24.2305 17.7951C23.192 17.5195 22.269 17.2834 21.4613 17.0472C20.692 16.811 19.9997 16.5354 19.4997 16.2599C18.9997 15.945 18.5766 15.6301 18.3459 15.2364C18.0382 14.8821 17.9228 14.3704 17.9228 13.8193C17.9228 12.7959 18.2689 12.0479 19.0382 11.4575C19.7689 10.9064 20.8459 10.6308 22.3459 10.6308C23.1536 10.6308 23.9997 10.7489 24.769 10.9457C25.5767 11.1819 26.3074 11.4181 26.9997 11.733C27.7305 12.0479 28.3074 12.3235 28.7305 12.6778C29.2305 12.9927 29.5382 13.2289 29.7305 13.4257L32.0767 8.93818C30.8844 8.11154 29.4613 7.36362 27.8074 6.7338C26.192 6.10397 24.4228 5.78906 22.4613 5.78906C21.0382 5.78906 19.7305 5.98588 18.4997 6.37952C17.3074 6.7338 16.2305 7.32426 15.3074 8.07218C14.3843 8.82009 13.692 9.72546 13.1535 10.867C12.6535 11.9692 12.3843 13.2682 12.3843 14.6853C12.3843 15.7875 12.5382 16.6929 12.8843 17.5195C13.192 18.2675 13.692 18.976 14.3459 19.5665C14.9997 20.1569 15.8074 20.708 16.7689 21.141C17.7305 21.574 18.8843 21.9677 20.192 22.3219C21.3074 22.6369 22.269 22.9518 23.1536 23.2273C24.0382 23.5029 24.8074 23.7784 25.4228 24.0933C26.0382 24.4082 26.5382 24.8019 26.8459 25.2349C27.1921 25.6679 27.3459 26.1796 27.3459 26.8094C27.3459 28.7383 25.8459 29.683 22.9228 29.683C21.8459 29.683 20.8074 29.5649 19.8074 29.2894C18.8074 29.0138 17.8459 28.6989 17.0382 28.3446C16.192 27.951 15.4997 27.5967 14.8843 27.2031C14.2689 26.8094 13.8459 26.4945 13.6151 26.2584L11.2689 30.982C12.8843 32.1236 14.692 33.029 16.692 33.6588C18.692 34.2886 20.769 34.6035 22.8459 34.6035C24.192 34.6035 25.4613 34.4461 26.692 34.1312C27.9228 33.8162 29.0382 33.3439 29.9613 32.6747C30.8844 32.0055 31.6536 31.1395 32.1921 30.0767C32.769 28.9745 33.0382 27.6755 33.0382 26.1796C33.0382 24.8806 32.8459 23.7784 32.4228 22.9124V22.8337Z"
          fill="#4F72A5"/>
    <path d="M51.5 10.7446V5.90283H33.0769V34.1268H48.9231V29.3244H38.4615V21.9633H48.9231V17.5152H38.4615V10.7052H51.5V10.7446Z"
          fill="#4F72A5"/>
    <path d="M56.8463 10.7446V17.5546H67.8079V22.0027H56.8463V34.1268H51.5001V5.90283H70.0002V10.7446H56.8463Z"
          fill="#4F72A5"/>
    <path d="M4.96156 37.632L24.1539 40.23H0V0H24.1539L4.96156 2.59803V37.632Z" fill="#283345"/>
    <path d="M8.69253 23.2237C9.436 23.2237 10.0387 22.6069 10.0387 21.846C10.0387 21.0851 9.436 20.4683 8.69253 20.4683C7.94907 20.4683 7.34637 21.0851 7.34637 21.846C7.34637 22.6069 7.94907 23.2237 8.69253 23.2237Z"
          fill="#283345"/>
</svg>
