<svg width="51" height="41" viewBox="0 0 51 41" fill="none" xmlns="http://www.w3.org/2000/svg">
<path d="M21.7671 2.92339L19.9165 0C7.11305 8.84268 0 19.5867 0 28.4294C0 36.9798 6.11836 41 11.3103 41C17.8543 41 22.4772 35.2982 22.4772 29.3064C22.4772 24.2642 19.3475 19.9516 15.1502 18.3425C13.9416 17.9029 12.8035 17.538 12.8035 15.4191C12.8035 12.7156 14.7246 8.69768 21.7671 2.92339ZM50.0053 2.92339L48.1548 0C35.4924 8.84268 28.2382 19.5867 28.2382 28.4294C28.2382 36.9798 34.4977 41 39.6897 41C46.3042 41 51 35.2982 51 29.3064C51 24.2642 47.7997 19.9516 43.459 18.3425C42.2504 17.9029 41.1829 17.538 41.1829 15.4191C41.1829 12.7156 43.1745 8.69534 50.003 2.92106L50.0053 2.92339Z" fill="#153044"/>
</svg>
